<svg xmlns="http://www.w3.org/2000/svg" viewBox="0 0 200 200">
  <!-- Premium gradients and effects -->
  <defs>
    <!-- Rich background gradient with premium dark blue tones -->
    <linearGradient id="bg-gradient" x1="0%" y1="0%" x2="100%" y2="100%">
      <stop offset="0%" stop-color="#010B18" />
      <stop offset="50%" stop-color="#0A1528" />
      <stop offset="100%" stop-color="#0F172A" />
    </linearGradient>
    
    <!-- Luxury gold accent gradient -->
    <linearGradient id="gold-gradient" x1="0%" y1="0%" x2="100%" y2="100%">
      <stop offset="0%" stop-color="#FDE68A" />
      <stop offset="50%" stop-color="#F59E0B" />
      <stop offset="100%" stop-color="#B45309" />
    </linearGradient>
    
    <!-- Premium blue gradient -->
    <linearGradient id="blue-gradient" x1="0%" y1="0%" x2="100%" y2="100%">
      <stop offset="0%" stop-color="#0EA5E9" />
      <stop offset="50%" stop-color="#0284C7" />
      <stop offset="100%" stop-color="#0369A1" />
    </linearGradient>
    
    <!-- Enhanced glow effects -->
    <filter id="glow" x="-20%" y="-20%" width="140%" height="140%">
      <feGaussianBlur stdDeviation="3" result="blur" />
      <feComposite in="SourceGraphic" in2="blur" operator="over" />
    </filter>
    
    <!-- Premium drop shadow -->
    <filter id="drop-shadow" x="-20%" y="-20%" width="140%" height="140%">
      <feGaussianBlur in="SourceAlpha" stdDeviation="2" />
      <feOffset dx="1" dy="1" result="offsetblur" />
      <feFlood flood-color="#000000" flood-opacity="0.2" />
      <feComposite in2="offsetblur" operator="in" />
      <feMerge>
        <feMergeNode />
        <feMergeNode in="SourceGraphic" />
      </feMerge>
    </filter>
    
    <!-- Subtle inner shadow -->
    <radialGradient id="innerShadow" cx="50%" cy="50%" r="50%" fx="50%" fy="50%">
      <stop offset="85%" stop-color="transparent"/>
      <stop offset="100%" stop-color="rgba(0,0,0,0.2)"/>
    </radialGradient>
  </defs>
  
  <!-- Main app icon background - true iOS-style squircle with ~33% roundness (iPhone-like) -->
  <g filter="url(#drop-shadow)">
    <!-- The key is using this specific curve that has no visible transition between straight and curved sections -->
    <path d="M50,25 
             C50,25 25,25 25,50 
             L25,150 
             C25,175 50,175 50,175 
             L150,175 
             C175,175 175,150 175,150 
             L175,50 
             C175,25 150,25 150,25 Z" 
          fill="url(#bg-gradient)" />
          
    <!-- Inner shadow overlay -->
    <path d="M50,25 
             C50,25 25,25 25,50 
             L25,150 
             C25,175 50,175 50,175 
             L150,175 
             C175,175 175,150 175,150 
             L175,50 
             C175,25 150,25 150,25 Z" 
          fill="url(#innerShadow)" opacity="0.4" />
  </g>
  
  <!-- Main content elements - enlarged and centered -->
  <g filter="url(#glow)">
    <!-- Left-pointing arrow -->
    <path d="M80,100 
             C80,96 80,92 80,88 
             L60,88 
             C60,86 60,82 60,78
             C56,84 44,92 35,100
             C44,108 56,116 60,122
             C60,118 60,114 60,112
             L80,112
             C80,108 80,104 80,100 Z" 
          fill="url(#blue-gradient)" />
    
    <!-- Enlarged Markdown "M" logo, placed in center-right -->
    <path d="M95 125V70h14l16 22 16-22h14v55h-14V92l-16 20-16-20v33z" 
          fill="url(#blue-gradient)" />
  </g>
  
  <!-- Subtle highlights in true Apple style -->
  <!-- Top reflection -->
  <path d="M35,40 Q100,30 165,40" fill="none" stroke="#ffffff" stroke-width="1" stroke-opacity="0.3" />
</svg>
